<svg xmlns="http://www.w3.org/2000/svg" xmlns:xlink="http://www.w3.org/1999/xlink" version="1.1" data-diagram-type="SEQUENCE" style="width:1328px;height:703px;background:#FFFFFF;" width="1328px" height="703px" viewBox="0 0 1328 703" zoomAndPan="magnify" preserveAspectRatio="none" contentStyleType="text/css"><?plantuml 1.2026.7beta5?><defs/><g font-family="sans-serif" lengthAdjust="spacing"><g class="title" data-source-line="1"><text x="440.917" y="27.995" fill="#000" font-size="14" textLength="439.653" font-weight="700">Add Clothing Item with Automatic Background Removal</text></g><g><title>Backend API</title><rect x="694.381" y="178.859" width="10" height="87.398" fill="#FFF" style="stroke:#181818;stroke-width:1;"/></g><g><title>Backend API</title><rect x="694.381" y="516.125" width="10" height="58.266" fill="#FFF" style="stroke:#181818;stroke-width:1;"/></g><g><title>Rembg Service</title><rect x="993.81" y="295.391" width="10" height="199.602" fill="#FFF" style="stroke:#181818;stroke-width:1;"/></g><rect x="638.901" y="310.391" width="673.586" height="177.602" fill="none" style="stroke:#000;stroke-width:1.5;"/><g class="participant-lifeline" data-qualified-name="User" data-entity-uid="part1" id="part1-lifeline" data-source-line="3"><g><title>User</title><rect x="19.955" y="118.594" width="8" height="502.93" fill="#000" fill-opacity="0"/><line x1="23" y1="118.594" x2="23" y2="621.523" style="stroke:#181818;stroke-width:0.5;stroke-dasharray:5,5;"/></g></g><g class="participant-lifeline" data-qualified-name="FE" data-entity-uid="part2" id="part2-lifeline" data-source-line="4"><g><title>Frontend</title><rect x="389.94" y="118.594" width="8" height="502.93" fill="#000" fill-opacity="0"/><line x1="393.325" y1="118.594" x2="393.325" y2="621.523" style="stroke:#181818;stroke-width:0.5;stroke-dasharray:5,5;"/></g></g><g class="participant-lifeline" data-qualified-name="API" data-entity-uid="part3" id="part3-lifeline" data-source-line="5"><g><title>Backend API</title><rect x="695.381" y="118.594" width="8" height="502.93" fill="#000" fill-opacity="0"/><line x1="698.901" y1="118.594" x2="698.901" y2="621.523" style="stroke:#181818;stroke-width:0.5;stroke-dasharray:5,5;"/></g></g><g class="participant-lifeline" data-qualified-name="BG" data-entity-uid="part4" id="part4-lifeline" data-source-line="6"><g><title>Rembg Service</title><rect x="994.81" y="118.594" width="8" height="502.93" fill="#000" fill-opacity="0"/><line x1="997.936" y1="118.594" x2="997.936" y2="621.523" style="stroke:#181818;stroke-width:0.5;stroke-dasharray:5,5;"/></g></g><g class="participant-lifeline" data-qualified-name="DB" data-entity-uid="part5" id="part5-lifeline" data-source-line="7"><g><title>PostgreSQL</title><rect x="1109.061" y="118.594" width="8" height="502.93" fill="#000" fill-opacity="0"/><line x1="1112.684" y1="118.594" x2="1112.684" y2="621.523" style="stroke:#181818;stroke-width:0.5;stroke-dasharray:5,5;"/></g></g><g class="participant-lifeline" data-qualified-name="FS" data-entity-uid="part6" id="part6-lifeline" data-source-line="8"><g><title>Uploads Volume</title><rect x="1230.462" y="118.594" width="8" height="502.93" fill="#000" fill-opacity="0"/><line x1="1234.437" y1="118.594" x2="1234.437" y2="621.523" style="stroke:#181818;stroke-width:0.5;stroke-dasharray:5,5;"/></g></g><g class="participant participant-head" data-qualified-name="User" data-entity-uid="part1" id="part1-head" data-source-line="3"><text x="5" y="115.292" fill="#000" font-size="14" textLength="31.91">User</text><ellipse cx="23.955" cy="50.797" rx="8" ry="8" fill="#E2E2F0" style="stroke:#181818;stroke-width:0.5;"/><path d="M23.955,58.797 L23.955,85.797 M10.955,66.797 L36.955,66.797 M23.955,85.797 L10.955,100.797 M23.955,85.797 L36.955,100.797" style="stroke:#181818;stroke-width:0.5;" fill="none"/></g><g class="participant participant-tail" data-qualified-name="User" data-entity-uid="part1" id="part1-tail" data-source-line="3"><text x="5" y="633.519" fill="#000" font-size="14" textLength="31.91">User</text><ellipse cx="23.955" cy="645.32" rx="8" ry="8" fill="#E2E2F0" style="stroke:#181818;stroke-width:0.5;"/><path d="M23.955,653.32 L23.955,680.32 M10.955,661.32 L36.955,661.32 M23.955,680.32 L10.955,695.32 M23.955,680.32 L36.955,695.32" style="stroke:#181818;stroke-width:0.5;" fill="none"/></g><g class="participant participant-head" data-qualified-name="FE" data-entity-uid="part2" id="part2-head" data-source-line="4"><rect x="337.325" y="71" width="113.23" height="46.594" fill="#E2E2F0" style="stroke:#181818;stroke-width:0.5;" rx="2.5" ry="2.5"/><text x="362.386" y="90.995" fill="#000" font-size="14" textLength="63.109">Frontend</text><text x="344.325" y="107.292" fill="#000" font-size="14" textLength="99.23">(React + Vite)</text></g><g class="participant participant-tail" data-qualified-name="FE" data-entity-uid="part2" id="part2-tail" data-source-line="4"><rect x="337.325" y="620.523" width="113.23" height="46.594" fill="#E2E2F0" style="stroke:#181818;stroke-width:0.5;" rx="2.5" ry="2.5"/><text x="362.386" y="640.519" fill="#000" font-size="14" textLength="63.109">Frontend</text><text x="344.325" y="656.815" fill="#000" font-size="14" textLength="99.23">(React + Vite)</text></g><g class="participant participant-head" data-qualified-name="API" data-entity-uid="part3" id="part3-head" data-source-line="5"><rect x="648.901" y="71" width="100.96" height="46.594" fill="#E2E2F0" style="stroke:#181818;stroke-width:0.5;" rx="2.5" ry="2.5"/><text x="655.901" y="90.995" fill="#000" font-size="14" textLength="86.96">Backend API</text><text x="668.137" y="107.292" fill="#000" font-size="14" textLength="62.487">(FastAPI)</text></g><g class="participant participant-tail" data-qualified-name="API" data-entity-uid="part3" id="part3-tail" data-source-line="5"><rect x="648.901" y="620.523" width="100.96" height="46.594" fill="#E2E2F0" style="stroke:#181818;stroke-width:0.5;" rx="2.5" ry="2.5"/><text x="655.901" y="640.519" fill="#000" font-size="14" textLength="86.96">Backend API</text><text x="668.137" y="656.815" fill="#000" font-size="14" textLength="62.487">(FastAPI)</text></g><g class="participant participant-head" data-qualified-name="BG" data-entity-uid="part4" id="part4-head" data-source-line="6"><rect x="937.936" y="71" width="121.748" height="46.594" fill="#E2E2F0" style="stroke:#181818;stroke-width:0.5;" rx="2.5" ry="2.5"/><text x="945.838" y="90.995" fill="#000" font-size="14" textLength="105.943">Rembg Service</text><text x="944.936" y="107.292" fill="#000" font-size="14" textLength="107.748">(U2-Net model)</text></g><g class="participant participant-tail" data-qualified-name="BG" data-entity-uid="part4" id="part4-tail" data-source-line="6"><rect x="937.936" y="620.523" width="121.748" height="46.594" fill="#E2E2F0" style="stroke:#181818;stroke-width:0.5;" rx="2.5" ry="2.5"/><text x="945.838" y="640.519" fill="#000" font-size="14" textLength="105.943">Rembg Service</text><text x="944.936" y="656.815" fill="#000" font-size="14" textLength="107.748">(U2-Net model)</text></g><g class="participant participant-head" data-qualified-name="DB" data-entity-uid="part5" id="part5-head" data-source-line="7"><text x="1069.684" y="115.292" fill="#000" font-size="14" textLength="80.753">PostgreSQL</text><path d="M1095.061,66.297 C1095.061,56.297 1113.061,56.297 1113.061,56.297 C1113.061,56.297 1131.061,56.297 1131.061,66.297 L1131.061,92.297 C1131.061,102.297 1113.061,102.297 1113.061,102.297 C1113.061,102.297 1095.061,102.297 1095.061,92.297 L1095.061,66.297" style="stroke:#181818;stroke-width:0.5;" fill="#E2E2F0"/><path d="M1095.061,66.297 C1095.061,76.297 1113.061,76.297 1113.061,76.297 C1113.061,76.297 1131.061,76.297 1131.061,66.297" style="stroke:#181818;stroke-width:0.5;" fill="none"/></g><g class="participant participant-tail" data-qualified-name="DB" data-entity-uid="part5" id="part5-tail" data-source-line="7"><text x="1069.684" y="633.519" fill="#000" font-size="14" textLength="80.753">PostgreSQL</text><path d="M1095.061,646.82 C1095.061,636.82 1113.061,636.82 1113.061,636.82 C1113.061,636.82 1131.061,636.82 1131.061,646.82 L1131.061,672.82 C1131.061,682.82 1113.061,682.82 1113.061,682.82 C1113.061,682.82 1095.061,682.82 1095.061,672.82 L1095.061,646.82" style="stroke:#181818;stroke-width:0.5;" fill="#E2E2F0"/><path d="M1095.061,646.82 C1095.061,656.82 1113.061,656.82 1113.061,656.82 C1113.061,656.82 1131.061,656.82 1131.061,646.82" style="stroke:#181818;stroke-width:0.5;" fill="none"/></g><g class="participant participant-head" data-qualified-name="FS" data-entity-uid="part6" id="part6-head" data-source-line="8"><rect x="1170.437" y="67" width="132.05" height="46.594" fill="#E2E2F0" style="stroke:#181818;stroke-width:0.5;"/><rect x="1166.437" y="71" width="132.05" height="46.594" fill="#E2E2F0" style="stroke:#181818;stroke-width:0.5;"/><text x="1175.484" y="90.995" fill="#000" font-size="14" textLength="113.955">Uploads Volume</text><text x="1173.437" y="107.292" fill="#000" font-size="14" textLength="118.05">(Docker Volume)</text></g><g class="participant participant-tail" data-qualified-name="FS" data-entity-uid="part6" id="part6-tail" data-source-line="8"><rect x="1170.437" y="620.523" width="132.05" height="46.594" fill="#E2E2F0" style="stroke:#181818;stroke-width:0.5;"/><rect x="1166.437" y="624.523" width="132.05" height="46.594" fill="#E2E2F0" style="stroke:#181818;stroke-width:0.5;"/><text x="1175.484" y="644.519" fill="#000" font-size="14" textLength="113.955">Uploads Volume</text><text x="1173.437" y="660.815" fill="#000" font-size="14" textLength="118.05">(Docker Volume)</text></g><g><title>Backend API</title><rect x="694.381" y="178.859" width="10" height="87.398" fill="#FFF" style="stroke:#181818;stroke-width:1;"/></g><g><title>Backend API</title><rect x="694.381" y="516.125" width="10" height="58.266" fill="#FFF" style="stroke:#181818;stroke-width:1;"/></g><g><title>Rembg Service</title><rect x="993.81" y="295.391" width="10" height="199.602" fill="#FFF" style="stroke:#181818;stroke-width:1;"/></g><g class="message" data-entity-1="part1" data-entity-2="part2" id="msg1" data-source-line="10"><polygon points="381.94,145.727,391.94,149.727,381.94,153.727,385.94,149.727" fill="#181818" style="stroke:#181818;stroke-width:1;stroke-linejoin:miter;stroke-miterlimit:10;"/><line x1="23.955" y1="149.727" x2="387.94" y2="149.727" style="stroke:#181818;stroke-width:1;"/><text x="30.955" y="144.661" fill="#000" font-size="13" textLength="209.625">Select photo, submit "Add item"</text></g><g class="message" data-entity-1="part2" data-entity-2="part3" id="msg2" data-source-line="11"><polygon points="682.381,174.859,692.381,178.859,682.381,182.859,686.381,178.859" fill="#181818" style="stroke:#181818;stroke-width:1;stroke-linejoin:miter;stroke-miterlimit:10;"/><line x1="393.94" y1="178.859" x2="688.381" y2="178.859" style="stroke:#181818;stroke-width:1;"/><text x="400.94" y="173.793" fill="#000" font-size="13" textLength="204.959">POST /items (image, metadata)</text></g><g class="message" data-entity-1="part3" data-entity-2="part6" id="msg3" data-source-line="14"><polygon points="1222.462,203.992,1232.462,207.992,1222.462,211.992,1226.462,207.992" fill="#181818" style="stroke:#181818;stroke-width:1;stroke-linejoin:miter;stroke-miterlimit:10;"/><line x1="704.381" y1="207.992" x2="1228.462" y2="207.992" style="stroke:#181818;stroke-width:1;"/><text x="711.381" y="202.926" fill="#000" font-size="13" textLength="104.609">Save raw image</text></g><g class="message" data-entity-1="part3" data-entity-2="part5" id="msg4" data-source-line="15"><polygon points="1101.061,233.125,1111.061,237.125,1101.061,241.125,1105.061,237.125" fill="#181818" style="stroke:#181818;stroke-width:1;stroke-linejoin:miter;stroke-miterlimit:10;"/><line x1="704.381" y1="237.125" x2="1107.061" y2="237.125" style="stroke:#181818;stroke-width:1;"/><text x="711.381" y="232.059" fill="#000" font-size="13" textLength="254.535">Insert item row (status = "processing")</text></g><g class="message" data-entity-1="part3" data-entity-2="part2" id="msg5" data-source-line="16"><polygon points="404.94,262.258,394.94,266.258,404.94,270.258,400.94,266.258" fill="#181818" style="stroke:#181818;stroke-width:1;stroke-linejoin:miter;stroke-miterlimit:10;"/><line x1="398.94" y1="266.258" x2="698.381" y2="266.258" style="stroke:#181818;stroke-width:1;stroke-dasharray:2,2;"/><text x="410.94" y="261.192" fill="#000" font-size="13" textLength="276.44">202 Accepted (item id, status: processing)</text></g><g class="message" data-entity-1="part3" data-entity-2="part4" id="msg6" data-source-line="19"><polygon points="981.81,291.391,991.81,295.391,981.81,299.391,985.81,295.391" fill="#181818" style="stroke:#181818;stroke-width:1;stroke-linejoin:miter;stroke-miterlimit:10;"/><line x1="699.381" y1="295.391" x2="987.81" y2="295.391" style="stroke:#181818;stroke-width:1;"/><text x="706.381" y="290.325" fill="#000" font-size="13" textLength="238.043">Send image for background removal</text></g><path d="M638.901,310.391 L703.344,310.391 L703.344,317.523 L693.344,327.523 L638.901,327.523 L638.901,310.391" style="stroke:#000;stroke-width:1.5;" fill="#EEE"/><rect x="638.901" y="310.391" width="673.586" height="177.602" fill="none" style="stroke:#000;stroke-width:1.5;"/><text x="653.901" y="323.458" fill="#000" font-size="13" textLength="19.443" font-weight="700">alt</text><text x="718.344" y="322.601" fill="#000" font-size="11" textLength="198.779" font-weight="700">[Background removal succeeds]</text><g class="message" data-entity-1="part4" data-entity-2="part3" id="msg7" data-source-line="23"><polygon points="710.381,344.656,700.381,348.656,710.381,352.656,706.381,348.656" fill="#181818" style="stroke:#181818;stroke-width:1;stroke-linejoin:miter;stroke-miterlimit:10;"/><line x1="704.381" y1="348.656" x2="992.81" y2="348.656" style="stroke:#181818;stroke-width:1;stroke-dasharray:2,2;"/><text x="716.381" y="343.59" fill="#000" font-size="13" textLength="270.429">Return processed image (transparent bg)</text></g><g class="message" data-entity-1="part3" data-entity-2="part6" id="msg8" data-source-line="24"><polygon points="1222.462,373.789,1232.462,377.789,1222.462,381.789,1226.462,377.789" fill="#181818" style="stroke:#181818;stroke-width:1;stroke-linejoin:miter;stroke-miterlimit:10;"/><line x1="699.381" y1="377.789" x2="1228.462" y2="377.789" style="stroke:#181818;stroke-width:1;"/><text x="706.381" y="372.723" fill="#000" font-size="13" textLength="147.158">Save processed image</text></g><g class="message" data-entity-1="part3" data-entity-2="part5" id="msg9" data-source-line="25"><polygon points="1101.061,402.922,1111.061,406.922,1101.061,410.922,1105.061,406.922" fill="#181818" style="stroke:#181818;stroke-width:1;stroke-linejoin:miter;stroke-miterlimit:10;"/><line x1="699.381" y1="406.922" x2="1107.061" y2="406.922" style="stroke:#181818;stroke-width:1;"/><text x="706.381" y="401.856" fill="#000" font-size="13" textLength="275.628">Update item (status = "ready", image_url)</text></g><line x1="638.901" y1="415.922" x2="1312.487" y2="415.922" style="stroke:#000;stroke-width:1;stroke-dasharray:2,2;"/><text x="643.901" y="426.132" fill="#000" font-size="11" textLength="247.93" font-weight="700">[Background removal fails or times out]</text><g class="message" data-entity-1="part4" data-entity-2="part3" id="msg10" data-source-line="27"><polygon points="710.381,446.859,700.381,450.859,710.381,454.859,706.381,450.859" fill="#181818" style="stroke:#181818;stroke-width:1;stroke-linejoin:miter;stroke-miterlimit:10;"/><line x1="704.381" y1="450.859" x2="992.81" y2="450.859" style="stroke:#181818;stroke-width:1;stroke-dasharray:2,2;"/><text x="716.381" y="445.793" fill="#000" font-size="13" textLength="95.507">Error / timeout</text></g><g class="message" data-entity-1="part3" data-entity-2="part5" id="msg11" data-source-line="28"><polygon points="1101.061,475.992,1111.061,479.992,1101.061,483.992,1105.061,479.992" fill="#181818" style="stroke:#181818;stroke-width:1;stroke-linejoin:miter;stroke-miterlimit:10;"/><line x1="699.381" y1="479.992" x2="1107.061" y2="479.992" style="stroke:#181818;stroke-width:1;"/><text x="706.381" y="474.926" fill="#000" font-size="13" textLength="356.783">Update item (status = "fallback", image_url = original)</text></g><g class="message" data-entity-1="part2" data-entity-2="part3" id="msg12" data-source-line="32"><polygon points="682.381,512.125,692.381,516.125,682.381,520.125,686.381,516.125" fill="#181818" style="stroke:#181818;stroke-width:1;stroke-linejoin:miter;stroke-miterlimit:10;"/><line x1="393.94" y1="516.125" x2="688.381" y2="516.125" style="stroke:#181818;stroke-width:1;"/><text x="400.94" y="511.059" fill="#000" font-size="13" textLength="209.212">GET /items/{id} (poll or refresh)</text></g><g class="message" data-entity-1="part3" data-entity-2="part5" id="msg13" data-source-line="34"><polygon points="1101.061,541.258,1111.061,545.258,1101.061,549.258,1105.061,545.258" fill="#181818" style="stroke:#181818;stroke-width:1;stroke-linejoin:miter;stroke-miterlimit:10;"/><line x1="704.381" y1="545.258" x2="1107.061" y2="545.258" style="stroke:#181818;stroke-width:1;"/><text x="711.381" y="540.192" fill="#000" font-size="13" textLength="110.83">Read item status</text></g><g class="message" data-entity-1="part3" data-entity-2="part2" id="msg14" data-source-line="35"><polygon points="404.94,570.391,394.94,574.391,404.94,578.391,400.94,574.391" fill="#181818" style="stroke:#181818;stroke-width:1;stroke-linejoin:miter;stroke-miterlimit:10;"/><line x1="398.94" y1="574.391" x2="698.381" y2="574.391" style="stroke:#181818;stroke-width:1;stroke-dasharray:2,2;"/><text x="410.94" y="569.325" fill="#000" font-size="13" textLength="191.103">200 OK (item, current status)</text></g><g class="message" data-entity-1="part2" data-entity-2="part1" id="msg15" data-source-line="38"><polygon points="34.955,599.523,24.955,603.523,34.955,607.523,30.955,603.523" fill="#181818" style="stroke:#181818;stroke-width:1;stroke-linejoin:miter;stroke-miterlimit:10;"/><line x1="28.955" y1="603.523" x2="392.94" y2="603.523" style="stroke:#181818;stroke-width:1;stroke-dasharray:2,2;"/><text x="40.955" y="598.458" fill="#000" font-size="13" textLength="345.985">Show item in wardrobe (processed or original image)</text></g><?plantuml-src XPD1Rnen48Nl_XMZFO5Ab8WZKYkn3I3Kgab3oQbIDQm7iEgrL_OigAhwtplsGjcGIEM0pFezvfkPjspO4aorXe_Myzwu7IoPQZWQtiEqPLyZcmfAh7xkWc-TXYUg_G6jKbYn3r2i8uK2C48wg0Q3w4s3Zg6O1--OdFxk1ayaSdW7puPfcENpsKjnAY5Qc3ukHJ_7o7Bgf79ugHM6pGvM50wc8b6lnpTVYA7sccndAHTA8-C68q7nw2Fl0gs-VivtzwMglBLKiV4kIWUDzQWZF7lRrkdlxhsWXDFl4-rAgTGWt7mGyedKJdvezfxz26AxgOrmfJbAWtMXvhEa5F09F3wili5jUXnXO6hSqGXgOanympH5Sq2ctAIIhrnX9HNmG13m2Dbolhal9x1q0iAv40H_X45av3R2UoYQu2kAKTPO33lBYNTyDuPfLL73f8KYMOqMyEoSmCKtL9hUP2eNgMjPKEQ1hUn-Sqb5EANYdrKMeD1oFpadZKnBG4X71V8f5vanJ-g9k0tk34FdKWCEwA84W6Jt6o5Clkj9NPdwcZIpTQCJLMwyDwz0g7yLeyxpemrsgCXAPDwWtgAn4QHhDZN9eULN_BCGvFusAyxt_sVOehLfadqCUUw3sHc7YSZf_bBIP7lnMipEwRhzRVGV63IIxSGPQ1iexgyYrkEHTxABwoa6Lu6vWuTFNLH6KBKXJxyJliv8uX5ZUaDa7ti9PHSn1qSCElYDRF6o8O4xTzUrFFmB?></g></svg>